ffmpeg version 5.1.6-0+deb12u1 Copyright (c) 2000-2024 the FFmpeg developers
  built with gcc 12 (Debian 12.2.0-14)
  configuration: --prefix=/usr --extra-version=0+deb12u1 --toolchain=hardened --libdir=/usr/lib/x86_64-linux-gnu --incdir=/usr/include/x86_64-linux-gnu --arch=amd64 --enable-gpl --disable-stripping --enable-gnutls --enable-ladspa --enable-libaom --enable-libass --enable-libbluray --enable-libbs2b --enable-libcaca --enable-libcdio --enable-libcodec2 --enable-libdav1d --enable-libflite --enable-libfontconfig --enable-libfreetype --enable-libfribidi --enable-libglslang --enable-libgme --enable-libgsm --enable-libjack --enable-libmp3lame --enable-libmysofa --enable-libopenjpeg --enable-libopenmpt --enable-libopus --enable-libpulse --enable-librabbitmq --enable-librist --enable-librubberband --enable-libshine --enable-libsnappy --enable-libsoxr --enable-libspeex --enable-libsrt --enable-libssh --enable-libsvtav1 --enable-libtheora --enable-libtwolame --enable-libvidstab --enable-libvorbis --enable-libvpx --enable-libwebp --enable-libx265 --enable-libxml2 --enable-libxvid --enable-libzimg --enable-libzmq --enable-libzvbi --enable-lv2 --enable-omx --enable-openal --enable-opencl --enable-opengl --enable-sdl2 --disable-sndio --enable-libjxl --enable-pocketsphinx --enable-librsvg --enable-libmfx --enable-libdc1394 --enable-libdrm --enable-libiec61883 --enable-chromaprint --enable-frei0r --enable-libx264 --enable-libplacebo --enable-librav1e --enable-shared
  libavutil      57. 28.100 / 57. 28.100
  libavcodec     59. 37.100 / 59. 37.100
  libavformat    59. 27.100 / 59. 27.100
  libavdevice    59.  7.100 / 59.  7.100
  libavfilter     8. 44.100 /  8. 44.100
  libswscale      6.  7.100 /  6.  7.100
  libswresample   4.  7.100 /  4.  7.100
  libpostproc    56.  6.100 / 56.  6.100
Input #0, mov,mp4,m4a,3gp,3g2,mj2, from '/mnt/videos/ferrandis.mp4':
  Metadata:
    major_brand     : isom
    minor_version   : 512
    compatible_brands: isomiso2avc1mp41
    encoder         : Lavf58.76.100
  Duration: 00:01:46.53, start: 0.000000, bitrate: 807 kb/s
  Stream #0:0[0x1](und): Video: h264 (High) (avc1 / 0x31637661), yuv420p(tv, bt709, progressive), 1280x720 [SAR 1:1 DAR 16:9], 670 kb/s, 30 fps, 30 tbr, 15360 tbn (default)
    Metadata:
      handler_name    : VideoHandler
      vendor_id       : [0][0][0][0]
  Stream #0:1[0x2](und): Audio: aac (LC) (mp4a / 0x6134706D), 48000 Hz, stereo, fltp, 128 kb/s (default)
    Metadata:
      handler_name    : SoundHandler
      vendor_id       : [0][0][0][0]
Stream mapping:
  Stream #0:1 -> #0:0 (aac (native) -> aac (native))
Press [q] to stop, [?] for help
Output #0, ipod, to '/var/www/html/media/ferrandis/audio.m4a':
  Metadata:
    major_brand     : isom
    minor_version   : 512
    compatible_brands: isomiso2avc1mp41
    encoder         : Lavf59.27.100
  Stream #0:0(und): Audio: aac (LC) (mp4a / 0x6134706D), 48000 Hz, stereo, fltp, 128 kb/s (default)
    Metadata:
      handler_name    : SoundHandler
      vendor_id       : [0][0][0][0]
      encoder         : Lavc59.37.100 aac
size=       0kB time=00:00:00.00 bitrate=N/A speed=   0x    size=     256kB time=00:00:21.78 bitrate=  96.3kbits/s speed=43.6x    size=     512kB time=00:00:44.26 bitrate=  94.8kbits/s speed=44.2x    size=    1024kB time=00:01:06.75 bitrate= 125.7kbits/s speed=44.5x    size=    1280kB time=00:01:28.53 bitrate= 118.4kbits/s speed=44.2x    size=    1821kB time=00:01:46.41 bitrate= 140.2kbits/s speed=45.6x    
video:0kB audio:1801kB subtitle:0kB other streams:0kB global headers:0kB muxing overhead: 1.126314%
[aac @ 0x5ced4afb8dc0] Qavg: 689.858
ffmpeg version 5.1.6-0+deb12u1 Copyright (c) 2000-2024 the FFmpeg developers
  built with gcc 12 (Debian 12.2.0-14)
  configuration: --prefix=/usr --extra-version=0+deb12u1 --toolchain=hardened --libdir=/usr/lib/x86_64-linux-gnu --incdir=/usr/include/x86_64-linux-gnu --arch=amd64 --enable-gpl --disable-stripping --enable-gnutls --enable-ladspa --enable-libaom --enable-libass --enable-libbluray --enable-libbs2b --enable-libcaca --enable-libcdio --enable-libcodec2 --enable-libdav1d --enable-libflite --enable-libfontconfig --enable-libfreetype --enable-libfribidi --enable-libglslang --enable-libgme --enable-libgsm --enable-libjack --enable-libmp3lame --enable-libmysofa --enable-libopenjpeg --enable-libopenmpt --enable-libopus --enable-libpulse --enable-librabbitmq --enable-librist --enable-librubberband --enable-libshine --enable-libsnappy --enable-libsoxr --enable-libspeex --enable-libsrt --enable-libssh --enable-libsvtav1 --enable-libtheora --enable-libtwolame --enable-libvidstab --enable-libvorbis --enable-libvpx --enable-libwebp --enable-libx265 --enable-libxml2 --enable-libxvid --enable-libzimg --enable-libzmq --enable-libzvbi --enable-lv2 --enable-omx --enable-openal --enable-opencl --enable-opengl --enable-sdl2 --disable-sndio --enable-libjxl --enable-pocketsphinx --enable-librsvg --enable-libmfx --enable-libdc1394 --enable-libdrm --enable-libiec61883 --enable-chromaprint --enable-frei0r --enable-libx264 --enable-libplacebo --enable-librav1e --enable-shared
  libavutil      57. 28.100 / 57. 28.100
  libavcodec     59. 37.100 / 59. 37.100
  libavformat    59. 27.100 / 59. 27.100
  libavdevice    59.  7.100 / 59.  7.100
  libavfilter     8. 44.100 /  8. 44.100
  libswscale      6.  7.100 /  6.  7.100
  libswresample   4.  7.100 /  4.  7.100
  libpostproc    56.  6.100 / 56.  6.100
Input #0, mov,mp4,m4a,3gp,3g2,mj2, from '/mnt/videos/ferrandis.mp4':
  Metadata:
    major_brand     : isom
    minor_version   : 512
    compatible_brands: isomiso2avc1mp41
    encoder         : Lavf58.76.100
  Duration: 00:01:46.53, start: 0.000000, bitrate: 807 kb/s
  Stream #0:0[0x1](und): Video: h264 (High) (avc1 / 0x31637661), yuv420p(tv, bt709, progressive), 1280x720 [SAR 1:1 DAR 16:9], 670 kb/s, 30 fps, 30 tbr, 15360 tbn (default)
    Metadata:
      handler_name    : VideoHandler
      vendor_id       : [0][0][0][0]
  Stream #0:1[0x2](und): Audio: aac (LC) (mp4a / 0x6134706D), 48000 Hz, stereo, fltp, 128 kb/s (default)
    Metadata:
      handler_name    : SoundHandler
      vendor_id       : [0][0][0][0]
Stream mapping:
  Stream #0:0 (h264) -> scale:default
  scale:default -> Stream #0:0 (libx264)
Press [q] to stop, [?] for help
[libx264 @ 0x57ff6009b840] using SAR=1/1
[libx264 @ 0x57ff6009b840] using cpu capabilities: MMX2 SSE2Fast SSSE3 SSE4.2 AVX FMA3 BMI2 AVX2 AVX512
[libx264 @ 0x57ff6009b840] profile High, level 3.1, 4:2:0, 8-bit
[libx264 @ 0x57ff6009b840] 264 - core 164 r3095 baee400 - H.264/MPEG-4 AVC codec - Copyleft 2003-2022 - http://www.videolan.org/x264.html - options: cabac=1 ref=3 deblock=1:0:0 analyse=0x3:0x113 me=hex subme=7 psy=1 psy_rd=1.00:0.00 mixed_ref=1 me_range=16 chroma_me=1 trellis=1 8x8dct=1 cqm=0 deadzone=21,11 fast_pskip=1 chroma_qp_offset=-2 threads=17 lookahead_threads=2 sliced_threads=0 nr=0 decimate=1 interlaced=0 bluray_compat=0 constrained_intra=0 bframes=2 b_pyramid=2 b_adapt=1 b_bias=0 direct=1 weightb=1 open_gop=0 weightp=2 keyint=24 keyint_min=2 scenecut=40 intra_refresh=0 rc_lookahead=24 rc=crf mbtree=1 crf=20.0 qcomp=0.60 qpmin=0 qpmax=69 qpstep=4 ip_ratio=1.40 aq=1:1.00
Output #0, mp4, to '/var/www/html/media/ferrandis/v960x540_20.mp4':
  Metadata:
    major_brand     : isom
    minor_version   : 512
    compatible_brands: isomiso2avc1mp41
    encoder         : Lavf59.27.100
  Stream #0:0: Video: h264 (avc1 / 0x31637661), yuv420p(tv, bt709, progressive), 960x540 [SAR 1:1 DAR 16:9], q=2-31, 30 fps, 15360 tbn
    Metadata:
      encoder         : Lavc59.37.100 libx264
    Side data:
      cpb: bitrate max/min/avg: 0/0/0 buffer size: 0 vbv_delay: N/A
frame=    1 fps=0.0 q=0.0 size=       0kB time=00:00:00.00 bitrate=N/A speed=   0x    frame=  363 fps=0.0 q=26.0 size=     256kB time=00:00:10.53 bitrate= 199.1kbits/s speed=19.3x    frame=  804 fps=768 q=26.0 size=    1024kB time=00:00:25.23 bitrate= 332.5kbits/s speed=24.1x    frame= 1191 fps=770 q=26.0 size=    2048kB time=00:00:38.13 bitrate= 440.0kbits/s speed=24.6x    frame= 1530 fps=747 q=26.0 size=    3584kB time=00:00:49.43 bitrate= 593.9kbits/s speed=24.1x    frame= 1949 fps=765 q=26.0 size=    5120kB time=00:01:03.40 bitrate= 661.6kbits/s speed=24.9x    frame= 2376 fps=780 q=26.0 size=    6656kB time=00:01:17.63 bitrate= 702.4kbits/s speed=25.5x    frame= 2771 fps=781 q=26.0 size=    7936kB time=00:01:30.80 bitrate= 716.0kbits/s speed=25.6x    frame= 3175 fps=784 q=26.0 size=    8960kB time=00:01:44.26 bitrate= 704.0kbits/s speed=25.7x    frame= 3196 fps=781 q=-1.0 Lsize=    9163kB time=00:01:46.43 bitrate= 705.3kbits/s speed=  26x    
video:9132kB audio:0kB subtitle:0kB other streams:0kB global headers:0kB muxing overhead: 0.337053%
[libx264 @ 0x57ff6009b840] frame I:134   Avg QP:12.73  size: 49726
[libx264 @ 0x57ff6009b840] frame P:1274  Avg QP:17.76  size:  2006
[libx264 @ 0x57ff6009b840] frame B:1788  Avg QP:16.97  size:    74
[libx264 @ 0x57ff6009b840] consecutive B-frames: 13.2% 11.5% 75.3%
[libx264 @ 0x57ff6009b840] mb I  I16..4: 46.1% 29.2% 24.7%
[libx264 @ 0x57ff6009b840] mb P  I16..4:  2.7%  2.6%  0.4%  P16..4:  7.0%  0.8%  1.0%  0.0%  0.0%    skip:85.5%
[libx264 @ 0x57ff6009b840] mb B  I16..4:  0.1%  0.1%  0.0%  B16..8:  1.0%  0.0%  0.0%  direct: 0.2%  skip:98.6%  L0:33.4% L1:62.3% BI: 4.2%
[libx264 @ 0x57ff6009b840] 8x8 transform intra:35.1% inter:59.8%
[libx264 @ 0x57ff6009b840] coded y,uvDC,uvAC intra: 19.9% 22.7% 19.6% inter: 2.0% 2.0% 0.5%
[libx264 @ 0x57ff6009b840] i16 v,h,dc,p: 54% 41%  4%  1%
[libx264 @ 0x57ff6009b840] i8 v,h,dc,ddl,ddr,vr,hd,vl,hu: 37% 21% 37%  1%  1%  1%  1%  1%  1%
[libx264 @ 0x57ff6009b840] i4 v,h,dc,ddl,ddr,vr,hd,vl,hu: 29% 34% 10%  3%  4%  4%  6%  3%  7%
[libx264 @ 0x57ff6009b840] i8c dc,h,v,p: 68% 25%  6%  1%
[libx264 @ 0x57ff6009b840] Weighted P-Frames: Y:9.2% UV:2.0%
[libx264 @ 0x57ff6009b840] ref P L0: 59.5% 21.8% 15.9%  2.2%  0.6%
[libx264 @ 0x57ff6009b840] ref B L0: 74.0% 23.2%  2.9%
[libx264 @ 0x57ff6009b840] kb/s:702.20
ffmpeg version 5.1.6-0+deb12u1 Copyright (c) 2000-2024 the FFmpeg developers
  built with gcc 12 (Debian 12.2.0-14)
  configuration: --prefix=/usr --extra-version=0+deb12u1 --toolchain=hardened --libdir=/usr/lib/x86_64-linux-gnu --incdir=/usr/include/x86_64-linux-gnu --arch=amd64 --enable-gpl --disable-stripping --enable-gnutls --enable-ladspa --enable-libaom --enable-libass --enable-libbluray --enable-libbs2b --enable-libcaca --enable-libcdio --enable-libcodec2 --enable-libdav1d --enable-libflite --enable-libfontconfig --enable-libfreetype --enable-libfribidi --enable-libglslang --enable-libgme --enable-libgsm --enable-libjack --enable-libmp3lame --enable-libmysofa --enable-libopenjpeg --enable-libopenmpt --enable-libopus --enable-libpulse --enable-librabbitmq --enable-librist --enable-librubberband --enable-libshine --enable-libsnappy --enable-libsoxr --enable-libspeex --enable-libsrt --enable-libssh --enable-libsvtav1 --enable-libtheora --enable-libtwolame --enable-libvidstab --enable-libvorbis --enable-libvpx --enable-libwebp --enable-libx265 --enable-libxml2 --enable-libxvid --enable-libzimg --enable-libzmq --enable-libzvbi --enable-lv2 --enable-omx --enable-openal --enable-opencl --enable-opengl --enable-sdl2 --disable-sndio --enable-libjxl --enable-pocketsphinx --enable-librsvg --enable-libmfx --enable-libdc1394 --enable-libdrm --enable-libiec61883 --enable-chromaprint --enable-frei0r --enable-libx264 --enable-libplacebo --enable-librav1e --enable-shared
  libavutil      57. 28.100 / 57. 28.100
  libavcodec     59. 37.100 / 59. 37.100
  libavformat    59. 27.100 / 59. 27.100
  libavdevice    59.  7.100 / 59.  7.100
  libavfilter     8. 44.100 /  8. 44.100
  libswscale      6.  7.100 /  6.  7.100
  libswresample   4.  7.100 /  4.  7.100
  libpostproc    56.  6.100 / 56.  6.100
Input #0, mov,mp4,m4a,3gp,3g2,mj2, from '/mnt/videos/ferrandis.mp4':
  Metadata:
    major_brand     : isom
    minor_version   : 512
    compatible_brands: isomiso2avc1mp41
    encoder         : Lavf58.76.100
  Duration: 00:01:46.53, start: 0.000000, bitrate: 807 kb/s
  Stream #0:0[0x1](und): Video: h264 (High) (avc1 / 0x31637661), yuv420p(tv, bt709, progressive), 1280x720 [SAR 1:1 DAR 16:9], 670 kb/s, 30 fps, 30 tbr, 15360 tbn (default)
    Metadata:
      handler_name    : VideoHandler
      vendor_id       : [0][0][0][0]
  Stream #0:1[0x2](und): Audio: aac (LC) (mp4a / 0x6134706D), 48000 Hz, stereo, fltp, 128 kb/s (default)
    Metadata:
      handler_name    : SoundHandler
      vendor_id       : [0][0][0][0]
Stream mapping:
  Stream #0:0 (h264) -> scale:default
  scale:default -> Stream #0:0 (libx264)
Press [q] to stop, [?] for help
[libx264 @ 0x5991bbf1e840] using SAR=1/1
[libx264 @ 0x5991bbf1e840] using cpu capabilities: MMX2 SSE2Fast SSSE3 SSE4.2 AVX FMA3 BMI2 AVX2 AVX512
[libx264 @ 0x5991bbf1e840] profile High, level 3.1, 4:2:0, 8-bit
[libx264 @ 0x5991bbf1e840] 264 - core 164 r3095 baee400 - H.264/MPEG-4 AVC codec - Copyleft 2003-2022 - http://www.videolan.org/x264.html - options: cabac=1 ref=3 deblock=1:0:0 analyse=0x3:0x113 me=hex subme=7 psy=1 psy_rd=1.00:0.00 mixed_ref=1 me_range=16 chroma_me=1 trellis=1 8x8dct=1 cqm=0 deadzone=21,11 fast_pskip=1 chroma_qp_offset=-2 threads=17 lookahead_threads=2 sliced_threads=0 nr=0 decimate=1 interlaced=0 bluray_compat=0 constrained_intra=0 bframes=2 b_pyramid=2 b_adapt=1 b_bias=0 direct=1 weightb=1 open_gop=0 weightp=2 keyint=24 keyint_min=2 scenecut=40 intra_refresh=0 rc_lookahead=24 rc=crf mbtree=1 crf=30.0 qcomp=0.60 qpmin=0 qpmax=69 qpstep=4 ip_ratio=1.40 aq=1:1.00
Output #0, mp4, to '/var/www/html/media/ferrandis/v960x540_30.mp4':
  Metadata:
    major_brand     : isom
    minor_version   : 512
    compatible_brands: isomiso2avc1mp41
    encoder         : Lavf59.27.100
  Stream #0:0: Video: h264 (avc1 / 0x31637661), yuv420p(tv, bt709, progressive), 960x540 [SAR 1:1 DAR 16:9], q=2-31, 30 fps, 15360 tbn
    Metadata:
      encoder         : Lavc59.37.100 libx264
    Side data:
      cpb: bitrate max/min/avg: 0/0/0 buffer size: 0 vbv_delay: N/A
frame=    1 fps=0.0 q=0.0 size=       0kB time=00:00:00.00 bitrate=N/A speed=   0x    frame=  371 fps=0.0 q=36.0 size=       0kB time=00:00:10.80 bitrate=   0.0kbits/s speed=  19x    frame=  816 fps=764 q=36.0 size=     512kB time=00:00:25.63 bitrate= 163.6kbits/s speed=  24x    frame= 1205 fps=767 q=36.0 size=     768kB time=00:00:38.60 bitrate= 163.0kbits/s speed=24.6x    frame= 1595 fps=770 q=36.0 size=    1536kB time=00:00:51.60 bitrate= 243.9kbits/s speed=24.9x    frame= 2025 fps=787 q=36.0 size=    2304kB time=00:01:05.93 bitrate= 286.3kbits/s speed=25.6x    frame= 2447 fps=796 q=36.0 size=    2816kB time=00:01:20.00 bitrate= 288.4kbits/s speed=  26x    frame= 2860 fps=800 q=36.0 size=    3328kB time=00:01:33.76 bitrate= 290.8kbits/s speed=26.2x    frame= 3196 fps=793 q=-1.0 Lsize=    4031kB time=00:01:46.43 bitrate= 310.3kbits/s speed=26.4x    
video:4000kB audio:0kB subtitle:0kB other streams:0kB global headers:0kB muxing overhead: 0.767104%
[libx264 @ 0x5991bbf1e840] frame I:134   Avg QP:24.00  size: 23957
[libx264 @ 0x5991bbf1e840] frame P:1274  Avg QP:26.16  size:   617
[libx264 @ 0x5991bbf1e840] frame B:1788  Avg QP:25.58  size:    55
[libx264 @ 0x5991bbf1e840] consecutive B-frames: 13.2% 11.5% 75.3%
[libx264 @ 0x5991bbf1e840] mb I  I16..4: 36.2% 44.3% 19.5%
[libx264 @ 0x5991bbf1e840] mb P  I16..4:  2.3%  2.0%  0.1%  P16..4:  4.1%  0.3%  0.4%  0.0%  0.0%    skip:90.7%
[libx264 @ 0x5991bbf1e840] mb B  I16..4:  0.0%  0.0%  0.0%  B16..8:  1.4%  0.0%  0.0%  direct: 0.0%  skip:98.5%  L0:37.7% L1:60.6% BI: 1.7%
[libx264 @ 0x5991bbf1e840] 8x8 transform intra:44.4% inter:63.8%
[libx264 @ 0x5991bbf1e840] coded y,uvDC,uvAC intra: 17.4% 18.3% 14.2% inter: 0.9% 0.7% 0.1%
[libx264 @ 0x5991bbf1e840] i16 v,h,dc,p: 46% 48%  5%  1%
[libx264 @ 0x5991bbf1e840] i8 v,h,dc,ddl,ddr,vr,hd,vl,hu: 38% 25% 30%  1%  1%  1%  1%  1%  2%
[libx264 @ 0x5991bbf1e840] i4 v,h,dc,ddl,ddr,vr,hd,vl,hu: 31% 35% 11%  3%  4%  3%  5%  3%  6%
[libx264 @ 0x5991bbf1e840] i8c dc,h,v,p: 69% 24%  5%  1%
[libx264 @ 0x5991bbf1e840] Weighted P-Frames: Y:9.2% UV:2.0%
[libx264 @ 0x5991bbf1e840] ref P L0: 47.5% 29.2% 15.9%  4.7%  2.7%
[libx264 @ 0x5991bbf1e840] ref B L0: 56.4% 37.9%  5.7%
[libx264 @ 0x5991bbf1e840] kb/s:307.57
ffmpeg version 5.1.6-0+deb12u1 Copyright (c) 2000-2024 the FFmpeg developers
  built with gcc 12 (Debian 12.2.0-14)
  configuration: --prefix=/usr --extra-version=0+deb12u1 --toolchain=hardened --libdir=/usr/lib/x86_64-linux-gnu --incdir=/usr/include/x86_64-linux-gnu --arch=amd64 --enable-gpl --disable-stripping --enable-gnutls --enable-ladspa --enable-libaom --enable-libass --enable-libbluray --enable-libbs2b --enable-libcaca --enable-libcdio --enable-libcodec2 --enable-libdav1d --enable-libflite --enable-libfontconfig --enable-libfreetype --enable-libfribidi --enable-libglslang --enable-libgme --enable-libgsm --enable-libjack --enable-libmp3lame --enable-libmysofa --enable-libopenjpeg --enable-libopenmpt --enable-libopus --enable-libpulse --enable-librabbitmq --enable-librist --enable-librubberband --enable-libshine --enable-libsnappy --enable-libsoxr --enable-libspeex --enable-libsrt --enable-libssh --enable-libsvtav1 --enable-libtheora --enable-libtwolame --enable-libvidstab --enable-libvorbis --enable-libvpx --enable-libwebp --enable-libx265 --enable-libxml2 --enable-libxvid --enable-libzimg --enable-libzmq --enable-libzvbi --enable-lv2 --enable-omx --enable-openal --enable-opencl --enable-opengl --enable-sdl2 --disable-sndio --enable-libjxl --enable-pocketsphinx --enable-librsvg --enable-libmfx --enable-libdc1394 --enable-libdrm --enable-libiec61883 --enable-chromaprint --enable-frei0r --enable-libx264 --enable-libplacebo --enable-librav1e --enable-shared
  libavutil      57. 28.100 / 57. 28.100
  libavcodec     59. 37.100 / 59. 37.100
  libavformat    59. 27.100 / 59. 27.100
  libavdevice    59.  7.100 / 59.  7.100
  libavfilter     8. 44.100 /  8. 44.100
  libswscale      6.  7.100 /  6.  7.100
  libswresample   4.  7.100 /  4.  7.100
  libpostproc    56.  6.100 / 56.  6.100
Input #0, mov,mp4,m4a,3gp,3g2,mj2, from '/mnt/videos/ferrandis.mp4':
  Metadata:
    major_brand     : isom
    minor_version   : 512
    compatible_brands: isomiso2avc1mp41
    encoder         : Lavf58.76.100
  Duration: 00:01:46.53, start: 0.000000, bitrate: 807 kb/s
  Stream #0:0[0x1](und): Video: h264 (High) (avc1 / 0x31637661), yuv420p(tv, bt709, progressive), 1280x720 [SAR 1:1 DAR 16:9], 670 kb/s, 30 fps, 30 tbr, 15360 tbn (default)
    Metadata:
      handler_name    : VideoHandler
      vendor_id       : [0][0][0][0]
  Stream #0:1[0x2](und): Audio: aac (LC) (mp4a / 0x6134706D), 48000 Hz, stereo, fltp, 128 kb/s (default)
    Metadata:
      handler_name    : SoundHandler
      vendor_id       : [0][0][0][0]
Stream mapping:
  Stream #0:0 (h264) -> scale:default
  scale:default -> Stream #0:0 (libx264)
Press [q] to stop, [?] for help
[libx264 @ 0x583140ffb840] using SAR=1/1
[libx264 @ 0x583140ffb840] using cpu capabilities: MMX2 SSE2Fast SSSE3 SSE4.2 AVX FMA3 BMI2 AVX2 AVX512
[libx264 @ 0x583140ffb840] profile High, level 3.1, 4:2:0, 8-bit
[libx264 @ 0x583140ffb840] 264 - core 164 r3095 baee400 - H.264/MPEG-4 AVC codec - Copyleft 2003-2022 - http://www.videolan.org/x264.html - options: cabac=1 ref=3 deblock=1:0:0 analyse=0x3:0x113 me=hex subme=7 psy=1 psy_rd=1.00:0.00 mixed_ref=1 me_range=16 chroma_me=1 trellis=1 8x8dct=1 cqm=0 deadzone=21,11 fast_pskip=1 chroma_qp_offset=-2 threads=17 lookahead_threads=2 sliced_threads=0 nr=0 decimate=1 interlaced=0 bluray_compat=0 constrained_intra=0 bframes=2 b_pyramid=2 b_adapt=1 b_bias=0 direct=1 weightb=1 open_gop=0 weightp=2 keyint=24 keyint_min=2 scenecut=40 intra_refresh=0 rc_lookahead=24 rc=crf mbtree=1 crf=40.0 qcomp=0.60 qpmin=0 qpmax=69 qpstep=4 ip_ratio=1.40 aq=1:1.00
Output #0, mp4, to '/var/www/html/media/ferrandis/v960x540_40.mp4':
  Metadata:
    major_brand     : isom
    minor_version   : 512
    compatible_brands: isomiso2avc1mp41
    encoder         : Lavf59.27.100
  Stream #0:0: Video: h264 (avc1 / 0x31637661), yuv420p(tv, bt709, progressive), 960x540 [SAR 1:1 DAR 16:9], q=2-31, 30 fps, 15360 tbn
    Metadata:
      encoder         : Lavc59.37.100 libx264
    Side data:
      cpb: bitrate max/min/avg: 0/0/0 buffer size: 0 vbv_delay: N/A
frame=    1 fps=0.0 q=0.0 size=       0kB time=00:00:00.00 bitrate=N/A speed=   0x    frame=  392 fps=0.0 q=46.0 size=       0kB time=00:00:11.50 bitrate=   0.0kbits/s speed=21.7x    frame=  799 fps=775 q=46.0 size=       0kB time=00:00:25.06 bitrate=   0.0kbits/s speed=24.3x    frame= 1181 fps=771 q=46.0 size=     256kB time=00:00:37.80 bitrate=  55.5kbits/s speed=24.7x    frame= 1548 fps=761 q=46.0 size=     512kB time=00:00:50.03 bitrate=  83.8kbits/s speed=24.6x    frame= 1951 fps=770 q=46.0 size=     768kB time=00:01:03.46 bitrate=  99.1kbits/s speed=25.1x    frame= 2375 fps=782 q=46.0 size=    1024kB time=00:01:17.60 bitrate= 108.1kbits/s speed=25.6x    frame= 2781 fps=786 q=43.0 size=    1280kB time=00:01:31.13 bitrate= 115.1kbits/s speed=25.8x    frame= 3164 fps=784 q=46.0 size=    1536kB time=00:01:43.90 bitrate= 121.1kbits/s speed=25.7x    frame= 3196 fps=780 q=-1.0 Lsize=    1600kB time=00:01:46.43 bitrate= 123.2kbits/s speed=  26x    
video:1570kB audio:0kB subtitle:0kB other streams:0kB global headers:0kB muxing overhead: 1.953248%
[libx264 @ 0x583140ffb840] frame I:134   Avg QP:33.47  size:  9145
[libx264 @ 0x583140ffb840] frame P:1274  Avg QP:33.41  size:   232
[libx264 @ 0x583140ffb840] frame B:1788  Avg QP:33.09  size:    48
[libx264 @ 0x583140ffb840] consecutive B-frames: 13.2% 11.5% 75.3%
[libx264 @ 0x583140ffb840] mb I  I16..4: 39.1% 49.1% 11.8%
[libx264 @ 0x583140ffb840] mb P  I16..4:  2.1%  1.1%  0.0%  P16..4:  1.9%  0.1%  0.1%  0.0%  0.0%    skip:94.7%
[libx264 @ 0x583140ffb840] mb B  I16..4:  0.0%  0.0%  0.0%  B16..8:  1.3%  0.0%  0.0%  direct: 0.0%  skip:98.7%  L0:35.5% L1:63.8% BI: 0.7%
[libx264 @ 0x583140ffb840] 8x8 transform intra:45.5% inter:80.8%
[libx264 @ 0x583140ffb840] coded y,uvDC,uvAC intra: 15.3% 14.9% 7.5% inter: 0.2% 0.2% 0.0%
[libx264 @ 0x583140ffb840] i16 v,h,dc,p: 43% 50%  6%  1%
[libx264 @ 0x583140ffb840] i8 v,h,dc,ddl,ddr,vr,hd,vl,hu: 36% 23% 33%  1%  1%  1%  1%  1%  2%
[libx264 @ 0x583140ffb840] i4 v,h,dc,ddl,ddr,vr,hd,vl,hu: 33% 34% 12%  3%  4%  3%  5%  2%  5%
[libx264 @ 0x583140ffb840] i8c dc,h,v,p: 75% 18%  6%  1%
[libx264 @ 0x583140ffb840] Weighted P-Frames: Y:9.2% UV:2.0%
[libx264 @ 0x583140ffb840] ref P L0: 60.6% 15.4% 12.0%  6.0%  6.0%
[libx264 @ 0x583140ffb840] ref B L0: 56.0% 36.3%  7.7%
[libx264 @ 0x583140ffb840] kb/s:120.64
ffmpeg version 5.1.6-0+deb12u1 Copyright (c) 2000-2024 the FFmpeg developers
  built with gcc 12 (Debian 12.2.0-14)
  configuration: --prefix=/usr --extra-version=0+deb12u1 --toolchain=hardened --libdir=/usr/lib/x86_64-linux-gnu --incdir=/usr/include/x86_64-linux-gnu --arch=amd64 --enable-gpl --disable-stripping --enable-gnutls --enable-ladspa --enable-libaom --enable-libass --enable-libbluray --enable-libbs2b --enable-libcaca --enable-libcdio --enable-libcodec2 --enable-libdav1d --enable-libflite --enable-libfontconfig --enable-libfreetype --enable-libfribidi --enable-libglslang --enable-libgme --enable-libgsm --enable-libjack --enable-libmp3lame --enable-libmysofa --enable-libopenjpeg --enable-libopenmpt --enable-libopus --enable-libpulse --enable-librabbitmq --enable-librist --enable-librubberband --enable-libshine --enable-libsnappy --enable-libsoxr --enable-libspeex --enable-libsrt --enable-libssh --enable-libsvtav1 --enable-libtheora --enable-libtwolame --enable-libvidstab --enable-libvorbis --enable-libvpx --enable-libwebp --enable-libx265 --enable-libxml2 --enable-libxvid --enable-libzimg --enable-libzmq --enable-libzvbi --enable-lv2 --enable-omx --enable-openal --enable-opencl --enable-opengl --enable-sdl2 --disable-sndio --enable-libjxl --enable-pocketsphinx --enable-librsvg --enable-libmfx --enable-libdc1394 --enable-libdrm --enable-libiec61883 --enable-chromaprint --enable-frei0r --enable-libx264 --enable-libplacebo --enable-librav1e --enable-shared
  libavutil      57. 28.100 / 57. 28.100
  libavcodec     59. 37.100 / 59. 37.100
  libavformat    59. 27.100 / 59. 27.100
  libavdevice    59.  7.100 / 59.  7.100
  libavfilter     8. 44.100 /  8. 44.100
  libswscale      6.  7.100 /  6.  7.100
  libswresample   4.  7.100 /  4.  7.100
  libpostproc    56.  6.100 / 56.  6.100
Input #0, mov,mp4,m4a,3gp,3g2,mj2, from '/mnt/videos/ferrandis.mp4':
  Metadata:
    major_brand     : isom
    minor_version   : 512
    compatible_brands: isomiso2avc1mp41
    encoder         : Lavf58.76.100
  Duration: 00:01:46.53, start: 0.000000, bitrate: 807 kb/s
  Stream #0:0[0x1](und): Video: h264 (High) (avc1 / 0x31637661), yuv420p(tv, bt709, progressive), 1280x720 [SAR 1:1 DAR 16:9], 670 kb/s, 30 fps, 30 tbr, 15360 tbn (default)
    Metadata:
      handler_name    : VideoHandler
      vendor_id       : [0][0][0][0]
  Stream #0:1[0x2](und): Audio: aac (LC) (mp4a / 0x6134706D), 48000 Hz, stereo, fltp, 128 kb/s (default)
    Metadata:
      handler_name    : SoundHandler
      vendor_id       : [0][0][0][0]
Stream mapping:
  Stream #0:0 (h264) -> scale:default
  scale:default -> Stream #0:0 (libx264)
Press [q] to stop, [?] for help
[libx264 @ 0x5fada52ea840] using SAR=1/1
[libx264 @ 0x5fada52ea840] using cpu capabilities: MMX2 SSE2Fast SSSE3 SSE4.2 AVX FMA3 BMI2 AVX2 AVX512
[libx264 @ 0x5fada52ea840] profile High, level 3.1, 4:2:0, 8-bit
[libx264 @ 0x5fada52ea840] 264 - core 164 r3095 baee400 - H.264/MPEG-4 AVC codec - Copyleft 2003-2022 - http://www.videolan.org/x264.html - options: cabac=1 ref=3 deblock=1:0:0 analyse=0x3:0x113 me=hex subme=7 psy=1 psy_rd=1.00:0.00 mixed_ref=1 me_range=16 chroma_me=1 trellis=1 8x8dct=1 cqm=0 deadzone=21,11 fast_pskip=1 chroma_qp_offset=-2 threads=22 lookahead_threads=3 sliced_threads=0 nr=0 decimate=1 interlaced=0 bluray_compat=0 constrained_intra=0 bframes=2 b_pyramid=2 b_adapt=1 b_bias=0 direct=1 weightb=1 open_gop=0 weightp=2 keyint=24 keyint_min=2 scenecut=40 intra_refresh=0 rc_lookahead=24 rc=crf mbtree=1 crf=20.0 qcomp=0.60 qpmin=0 qpmax=69 qpstep=4 ip_ratio=1.40 aq=1:1.00
Output #0, mp4, to '/var/www/html/media/ferrandis/v1280x720_20.mp4':
  Metadata:
    major_brand     : isom
    minor_version   : 512
    compatible_brands: isomiso2avc1mp41
    encoder         : Lavf59.27.100
  Stream #0:0: Video: h264 (avc1 / 0x31637661), yuv420p(tv, bt709, progressive), 1280x720 [SAR 1:1 DAR 16:9], q=2-31, 30 fps, 15360 tbn
    Metadata:
      encoder         : Lavc59.37.100 libx264
    Side data:
      cpb: bitrate max/min/avg: 0/0/0 buffer size: 0 vbv_delay: N/A
frame=    1 fps=0.0 q=0.0 size=       0kB time=00:00:00.00 bitrate=N/A speed=   0x    frame=  342 fps=0.0 q=26.0 size=     256kB time=00:00:09.66 bitrate= 217.0kbits/s speed=18.2x    frame=  704 fps=682 q=26.0 size=    1280kB time=00:00:21.73 bitrate= 482.5kbits/s speed=21.1x    frame= 1095 fps=715 q=26.0 size=    2560kB time=00:00:34.76 bitrate= 603.2kbits/s speed=22.7x    frame= 1287 fps=633 q=26.0 size=    4096kB time=00:00:41.16 bitrate= 815.1kbits/s speed=20.2x    frame= 1597 fps=630 q=26.0 size=    6144kB time=00:00:51.50 bitrate= 977.3kbits/s speed=20.3x    frame= 1915 fps=630 q=26.0 size=    8192kB time=00:01:02.10 bitrate=1080.7kbits/s speed=20.4x    frame= 2284 fps=645 q=26.0 size=    9472kB time=00:01:14.40 bitrate=1042.9kbits/s speed=  21x    frame= 2586 fps=640 q=26.0 size=   11520kB time=00:01:24.46 bitrate=1117.3kbits/s speed=20.9x    frame= 2939 fps=647 q=26.0 size=   12800kB time=00:01:36.23 bitrate=1089.6kbits/s speed=21.2x    frame= 3196 fps=633 q=-1.0 Lsize=   14384kB time=00:01:46.43 bitrate=1107.1kbits/s speed=21.1x    
video:14352kB audio:0kB subtitle:0kB other streams:0kB global headers:0kB muxing overhead: 0.218731%
[libx264 @ 0x5fada52ea840] frame I:134   Avg QP:11.42  size: 75714
[libx264 @ 0x5fada52ea840] frame P:1248  Avg QP:18.14  size:  3453
[libx264 @ 0x5fada52ea840] frame B:1814  Avg QP:17.10  size:   133
[libx264 @ 0x5fada52ea840] consecutive B-frames: 11.5% 13.3% 75.2%
[libx264 @ 0x5fada52ea840] mb I  I16..4: 58.1% 20.0% 21.9%
[libx264 @ 0x5fada52ea840] mb P  I16..4:  3.1%  2.8%  0.4%  P16..4:  7.0%  0.7%  0.6%  0.0%  0.0%    skip:85.3%
[libx264 @ 0x5fada52ea840] mb B  I16..4:  0.2%  0.1%  0.0%  B16..8:  1.3%  0.0%  0.0%  direct: 0.2%  skip:98.1%  L0:36.9% L1:60.1% BI: 3.0%
[libx264 @ 0x5fada52ea840] 8x8 transform intra:28.9% inter:60.3%
[libx264 @ 0x5fada52ea840] coded y,uvDC,uvAC intra: 17.6% 20.1% 16.5% inter: 1.9% 1.9% 0.5%
[libx264 @ 0x5fada52ea840] i16 v,h,dc,p: 65% 32%  3%  0%
[libx264 @ 0x5fada52ea840] i8 v,h,dc,ddl,ddr,vr,hd,vl,hu: 36% 18% 41%  1%  1%  1%  1%  1%  1%
[libx264 @ 0x5fada52ea840] i4 v,h,dc,ddl,ddr,vr,hd,vl,hu: 28% 30% 12%  4%  5%  5%  6%  4%  7%
[libx264 @ 0x5fada52ea840] i8c dc,h,v,p: 71% 22%  6%  1%
[libx264 @ 0x5fada52ea840] Weighted P-Frames: Y:9.0% UV:1.8%
[libx264 @ 0x5fada52ea840] ref P L0: 59.3% 21.1% 16.4%  2.6%  0.6%
[libx264 @ 0x5fada52ea840] ref B L0: 67.0% 29.3%  3.7%
[libx264 @ 0x5fada52ea840] kb/s:1103.57
ffmpeg version 5.1.6-0+deb12u1 Copyright (c) 2000-2024 the FFmpeg developers
  built with gcc 12 (Debian 12.2.0-14)
  configuration: --prefix=/usr --extra-version=0+deb12u1 --toolchain=hardened --libdir=/usr/lib/x86_64-linux-gnu --incdir=/usr/include/x86_64-linux-gnu --arch=amd64 --enable-gpl --disable-stripping --enable-gnutls --enable-ladspa --enable-libaom --enable-libass --enable-libbluray --enable-libbs2b --enable-libcaca --enable-libcdio --enable-libcodec2 --enable-libdav1d --enable-libflite --enable-libfontconfig --enable-libfreetype --enable-libfribidi --enable-libglslang --enable-libgme --enable-libgsm --enable-libjack --enable-libmp3lame --enable-libmysofa --enable-libopenjpeg --enable-libopenmpt --enable-libopus --enable-libpulse --enable-librabbitmq --enable-librist --enable-librubberband --enable-libshine --enable-libsnappy --enable-libsoxr --enable-libspeex --enable-libsrt --enable-libssh --enable-libsvtav1 --enable-libtheora --enable-libtwolame --enable-libvidstab --enable-libvorbis --enable-libvpx --enable-libwebp --enable-libx265 --enable-libxml2 --enable-libxvid --enable-libzimg --enable-libzmq --enable-libzvbi --enable-lv2 --enable-omx --enable-openal --enable-opencl --enable-opengl --enable-sdl2 --disable-sndio --enable-libjxl --enable-pocketsphinx --enable-librsvg --enable-libmfx --enable-libdc1394 --enable-libdrm --enable-libiec61883 --enable-chromaprint --enable-frei0r --enable-libx264 --enable-libplacebo --enable-librav1e --enable-shared
  libavutil      57. 28.100 / 57. 28.100
  libavcodec     59. 37.100 / 59. 37.100
  libavformat    59. 27.100 / 59. 27.100
  libavdevice    59.  7.100 / 59.  7.100
  libavfilter     8. 44.100 /  8. 44.100
  libswscale      6.  7.100 /  6.  7.100
  libswresample   4.  7.100 /  4.  7.100
  libpostproc    56.  6.100 / 56.  6.100
Input #0, mov,mp4,m4a,3gp,3g2,mj2, from '/mnt/videos/ferrandis.mp4':
  Metadata:
    major_brand     : isom
    minor_version   : 512
    compatible_brands: isomiso2avc1mp41
    encoder         : Lavf58.76.100
  Duration: 00:01:46.53, start: 0.000000, bitrate: 807 kb/s
  Stream #0:0[0x1](und): Video: h264 (High) (avc1 / 0x31637661), yuv420p(tv, bt709, progressive), 1280x720 [SAR 1:1 DAR 16:9], 670 kb/s, 30 fps, 30 tbr, 15360 tbn (default)
    Metadata:
      handler_name    : VideoHandler
      vendor_id       : [0][0][0][0]
  Stream #0:1[0x2](und): Audio: aac (LC) (mp4a / 0x6134706D), 48000 Hz, stereo, fltp, 128 kb/s (default)
    Metadata:
      handler_name    : SoundHandler
      vendor_id       : [0][0][0][0]
Stream mapping:
  Stream #0:0 (h264) -> scale:default
  scale:default -> Stream #0:0 (libx264)
Press [q] to stop, [?] for help
[libx264 @ 0x5d939bf48840] using SAR=1/1
[libx264 @ 0x5d939bf48840] using cpu capabilities: MMX2 SSE2Fast SSSE3 SSE4.2 AVX FMA3 BMI2 AVX2 AVX512
[libx264 @ 0x5d939bf48840] profile High, level 3.1, 4:2:0, 8-bit
[libx264 @ 0x5d939bf48840] 264 - core 164 r3095 baee400 - H.264/MPEG-4 AVC codec - Copyleft 2003-2022 - http://www.videolan.org/x264.html - options: cabac=1 ref=3 deblock=1:0:0 analyse=0x3:0x113 me=hex subme=7 psy=1 psy_rd=1.00:0.00 mixed_ref=1 me_range=16 chroma_me=1 trellis=1 8x8dct=1 cqm=0 deadzone=21,11 fast_pskip=1 chroma_qp_offset=-2 threads=22 lookahead_threads=3 sliced_threads=0 nr=0 decimate=1 interlaced=0 bluray_compat=0 constrained_intra=0 bframes=2 b_pyramid=2 b_adapt=1 b_bias=0 direct=1 weightb=1 open_gop=0 weightp=2 keyint=24 keyint_min=2 scenecut=40 intra_refresh=0 rc_lookahead=24 rc=crf mbtree=1 crf=30.0 qcomp=0.60 qpmin=0 qpmax=69 qpstep=4 ip_ratio=1.40 aq=1:1.00
Output #0, mp4, to '/var/www/html/media/ferrandis/v1280x720_30.mp4':
  Metadata:
    major_brand     : isom
    minor_version   : 512
    compatible_brands: isomiso2avc1mp41
    encoder         : Lavf59.27.100
  Stream #0:0: Video: h264 (avc1 / 0x31637661), yuv420p(tv, bt709, progressive), 1280x720 [SAR 1:1 DAR 16:9], q=2-31, 30 fps, 15360 tbn
    Metadata:
      encoder         : Lavc59.37.100 libx264
    Side data:
      cpb: bitrate max/min/avg: 0/0/0 buffer size: 0 vbv_delay: N/A
frame=    1 fps=0.0 q=0.0 size=       0kB time=00:00:00.00 bitrate=N/A speed=   0x    frame=  361 fps=0.0 q=36.0 size=       0kB time=00:00:10.30 bitrate=   0.0kbits/s speed=19.4x    frame=  718 fps=694 q=36.0 size=     512kB time=00:00:22.20 bitrate= 188.9kbits/s speed=21.5x    frame= 1111 fps=723 q=36.0 size=    1280kB time=00:00:35.30 bitrate= 297.1kbits/s speed=  23x    frame= 1348 fps=662 q=36.0 size=    2048kB time=00:00:43.20 bitrate= 388.4kbits/s speed=21.2x    frame= 1721 fps=678 q=36.0 size=    2816kB time=00:00:55.63 bitrate= 414.7kbits/s speed=21.9x    frame= 2102 fps=692 q=36.0 size=    3840kB time=00:01:08.33 bitrate= 460.4kbits/s speed=22.5x    frame= 2460 fps=695 q=36.0 size=    4608kB time=00:01:20.26 bitrate= 470.3kbits/s speed=22.7x    frame= 2803 fps=694 q=36.0 size=    5376kB time=00:01:31.70 bitrate= 480.3kbits/s speed=22.7x    frame= 3137 fps=691 q=36.0 size=    5888kB time=00:01:42.83 bitrate= 469.1kbits/s speed=22.7x    frame= 3196 fps=682 q=-1.0 Lsize=    6363kB time=00:01:46.43 bitrate= 489.7kbits/s speed=22.7x    
video:6332kB audio:0kB subtitle:0kB other streams:0kB global headers:0kB muxing overhead: 0.493650%
[libx264 @ 0x5d939bf48840] frame I:134   Avg QP:23.12  size: 37396
[libx264 @ 0x5d939bf48840] frame P:1248  Avg QP:26.12  size:  1041
[libx264 @ 0x5d939bf48840] frame B:1814  Avg QP:26.64  size:    95
[libx264 @ 0x5d939bf48840] consecutive B-frames: 11.5% 13.3% 75.2%
[libx264 @ 0x5d939bf48840] mb I  I16..4: 41.3% 41.6% 17.1%
[libx264 @ 0x5d939bf48840] mb P  I16..4:  2.8%  2.3%  0.1%  P16..4:  3.9%  0.3%  0.3%  0.0%  0.0%    skip:90.3%
[libx264 @ 0x5d939bf48840] mb B  I16..4:  0.1%  0.0%  0.0%  B16..8:  1.5%  0.0%  0.0%  direct: 0.1%  skip:98.3%  L0:37.0% L1:61.5% BI: 1.5%
[libx264 @ 0x5d939bf48840] 8x8 transform intra:42.0% inter:63.5%
[libx264 @ 0x5d939bf48840] coded y,uvDC,uvAC intra: 14.9% 16.5% 12.2% inter: 0.8% 0.7% 0.0%
[libx264 @ 0x5d939bf48840] i16 v,h,dc,p: 56% 39%  4%  1%
[libx264 @ 0x5d939bf48840] i8 v,h,dc,ddl,ddr,vr,hd,vl,hu: 37% 20% 37%  1%  1%  1%  1%  1%  2%
[libx264 @ 0x5d939bf48840] i4 v,h,dc,ddl,ddr,vr,hd,vl,hu: 32% 31% 12%  3%  4%  4%  5%  3%  6%
[libx264 @ 0x5d939bf48840] i8c dc,h,v,p: 73% 21%  5%  1%
[libx264 @ 0x5d939bf48840] Weighted P-Frames: Y:9.0% UV:1.8%
[libx264 @ 0x5d939bf48840] ref P L0: 49.4% 28.9% 14.5%  5.4%  1.9%
[libx264 @ 0x5d939bf48840] ref B L0: 52.2% 39.7%  8.2%
[libx264 @ 0x5d939bf48840] kb/s:486.82
ffmpeg version 5.1.6-0+deb12u1 Copyright (c) 2000-2024 the FFmpeg developers
  built with gcc 12 (Debian 12.2.0-14)
  configuration: --prefix=/usr --extra-version=0+deb12u1 --toolchain=hardened --libdir=/usr/lib/x86_64-linux-gnu --incdir=/usr/include/x86_64-linux-gnu --arch=amd64 --enable-gpl --disable-stripping --enable-gnutls --enable-ladspa --enable-libaom --enable-libass --enable-libbluray --enable-libbs2b --enable-libcaca --enable-libcdio --enable-libcodec2 --enable-libdav1d --enable-libflite --enable-libfontconfig --enable-libfreetype --enable-libfribidi --enable-libglslang --enable-libgme --enable-libgsm --enable-libjack --enable-libmp3lame --enable-libmysofa --enable-libopenjpeg --enable-libopenmpt --enable-libopus --enable-libpulse --enable-librabbitmq --enable-librist --enable-librubberband --enable-libshine --enable-libsnappy --enable-libsoxr --enable-libspeex --enable-libsrt --enable-libssh --enable-libsvtav1 --enable-libtheora --enable-libtwolame --enable-libvidstab --enable-libvorbis --enable-libvpx --enable-libwebp --enable-libx265 --enable-libxml2 --enable-libxvid --enable-libzimg --enable-libzmq --enable-libzvbi --enable-lv2 --enable-omx --enable-openal --enable-opencl --enable-opengl --enable-sdl2 --disable-sndio --enable-libjxl --enable-pocketsphinx --enable-librsvg --enable-libmfx --enable-libdc1394 --enable-libdrm --enable-libiec61883 --enable-chromaprint --enable-frei0r --enable-libx264 --enable-libplacebo --enable-librav1e --enable-shared
  libavutil      57. 28.100 / 57. 28.100
  libavcodec     59. 37.100 / 59. 37.100
  libavformat    59. 27.100 / 59. 27.100
  libavdevice    59.  7.100 / 59.  7.100
  libavfilter     8. 44.100 /  8. 44.100
  libswscale      6.  7.100 /  6.  7.100
  libswresample   4.  7.100 /  4.  7.100
  libpostproc    56.  6.100 / 56.  6.100
Input #0, mov,mp4,m4a,3gp,3g2,mj2, from '/mnt/videos/ferrandis.mp4':
  Metadata:
    major_brand     : isom
    minor_version   : 512
    compatible_brands: isomiso2avc1mp41
    encoder         : Lavf58.76.100
  Duration: 00:01:46.53, start: 0.000000, bitrate: 807 kb/s
  Stream #0:0[0x1](und): Video: h264 (High) (avc1 / 0x31637661), yuv420p(tv, bt709, progressive), 1280x720 [SAR 1:1 DAR 16:9], 670 kb/s, 30 fps, 30 tbr, 15360 tbn (default)
    Metadata:
      handler_name    : VideoHandler
      vendor_id       : [0][0][0][0]
  Stream #0:1[0x2](und): Audio: aac (LC) (mp4a / 0x6134706D), 48000 Hz, stereo, fltp, 128 kb/s (default)
    Metadata:
      handler_name    : SoundHandler
      vendor_id       : [0][0][0][0]
Stream mapping:
  Stream #0:0 (h264) -> scale:default
  scale:default -> Stream #0:0 (libx264)
Press [q] to stop, [?] for help
[libx264 @ 0x57960e8a6840] using SAR=1/1
[libx264 @ 0x57960e8a6840] using cpu capabilities: MMX2 SSE2Fast SSSE3 SSE4.2 AVX FMA3 BMI2 AVX2 AVX512
[libx264 @ 0x57960e8a6840] profile High, level 3.1, 4:2:0, 8-bit
[libx264 @ 0x57960e8a6840] 264 - core 164 r3095 baee400 - H.264/MPEG-4 AVC codec - Copyleft 2003-2022 - http://www.videolan.org/x264.html - options: cabac=1 ref=3 deblock=1:0:0 analyse=0x3:0x113 me=hex subme=7 psy=1 psy_rd=1.00:0.00 mixed_ref=1 me_range=16 chroma_me=1 trellis=1 8x8dct=1 cqm=0 deadzone=21,11 fast_pskip=1 chroma_qp_offset=-2 threads=22 lookahead_threads=3 sliced_threads=0 nr=0 decimate=1 interlaced=0 bluray_compat=0 constrained_intra=0 bframes=2 b_pyramid=2 b_adapt=1 b_bias=0 direct=1 weightb=1 open_gop=0 weightp=2 keyint=24 keyint_min=2 scenecut=40 intra_refresh=0 rc_lookahead=24 rc=crf mbtree=1 crf=40.0 qcomp=0.60 qpmin=0 qpmax=69 qpstep=4 ip_ratio=1.40 aq=1:1.00
Output #0, mp4, to '/var/www/html/media/ferrandis/v1280x720_40.mp4':
  Metadata:
    major_brand     : isom
    minor_version   : 512
    compatible_brands: isomiso2avc1mp41
    encoder         : Lavf59.27.100
  Stream #0:0: Video: h264 (avc1 / 0x31637661), yuv420p(tv, bt709, progressive), 1280x720 [SAR 1:1 DAR 16:9], q=2-31, 30 fps, 15360 tbn
    Metadata:
      encoder         : Lavc59.37.100 libx264
    Side data:
      cpb: bitrate max/min/avg: 0/0/0 buffer size: 0 vbv_delay: N/A
frame=    1 fps=0.0 q=0.0 size=       0kB time=00:00:00.00 bitrate=N/A speed=   0x    frame=  363 fps=0.0 q=46.0 size=       0kB time=00:00:10.36 bitrate=   0.0kbits/s speed=19.5x    frame=  739 fps=717 q=46.0 size=     256kB time=00:00:22.90 bitrate=  91.6kbits/s speed=22.2x    frame= 1140 fps=744 q=46.0 size=     512kB time=00:00:36.26 bitrate= 115.7kbits/s speed=23.7x    frame= 1448 fps=712 q=46.0 size=     768kB time=00:00:46.53 bitrate= 135.2kbits/s speed=22.9x    frame= 1800 fps=711 q=46.0 size=    1024kB time=00:00:58.26 bitrate= 144.0kbits/s speed=  23x    frame= 2240 fps=738 q=46.0 size=    1536kB time=00:01:12.93 bitrate= 172.5kbits/s speed=  24x    frame= 2594 fps=733 q=46.0 size=    2048kB time=00:01:24.73 bitrate= 198.0kbits/s speed=  24x    frame= 2988 fps=740 q=46.0 size=    2304kB time=00:01:37.86 bitrate= 192.9kbits/s speed=24.2x    frame= 3196 fps=728 q=-1.0 Lsize=    2594kB time=00:01:46.43 bitrate= 199.7kbits/s speed=24.2x    
video:2563kB audio:0kB subtitle:0kB other streams:0kB global headers:0kB muxing overhead: 1.217907%
[libx264 @ 0x57960e8a6840] frame I:134   Avg QP:32.32  size: 15058
[libx264 @ 0x57960e8a6840] frame P:1248  Avg QP:33.75  size:   382
[libx264 @ 0x57960e8a6840] frame B:1814  Avg QP:34.04  size:    71
[libx264 @ 0x57960e8a6840] consecutive B-frames: 11.5% 13.3% 75.2%
[libx264 @ 0x57960e8a6840] mb I  I16..4: 45.1% 43.7% 11.1%
[libx264 @ 0x57960e8a6840] mb P  I16..4:  2.3%  1.3%  0.0%  P16..4:  1.8%  0.0%  0.1%  0.0%  0.0%    skip:94.5%
[libx264 @ 0x57960e8a6840] mb B  I16..4:  0.0%  0.0%  0.0%  B16..8:  1.2%  0.0%  0.0%  direct: 0.0%  skip:98.8%  L0:36.2% L1:62.9% BI: 0.9%
[libx264 @ 0x57960e8a6840] 8x8 transform intra:41.8% inter:78.6%
[libx264 @ 0x57960e8a6840] coded y,uvDC,uvAC intra: 13.5% 13.7% 6.6% inter: 0.2% 0.2% 0.0%
[libx264 @ 0x57960e8a6840] i16 v,h,dc,p: 55% 40%  4%  1%
[libx264 @ 0x57960e8a6840] i8 v,h,dc,ddl,ddr,vr,hd,vl,hu: 34% 22% 36%  1%  1%  1%  1%  1%  2%
[libx264 @ 0x57960e8a6840] i4 v,h,dc,ddl,ddr,vr,hd,vl,hu: 32% 32% 14%  3%  4%  4%  5%  3%  5%
[libx264 @ 0x57960e8a6840] i8c dc,h,v,p: 76% 18%  5%  1%
[libx264 @ 0x57960e8a6840] Weighted P-Frames: Y:9.0% UV:1.8%
[libx264 @ 0x57960e8a6840] ref P L0: 59.5% 15.9% 12.0%  6.6%  5.9%
[libx264 @ 0x57960e8a6840] ref B L0: 49.1% 39.0% 11.9%
[libx264 @ 0x57960e8a6840] kb/s:197.04
ffmpeg version 5.1.6-0+deb12u1 Copyright (c) 2000-2024 the FFmpeg developers
  built with gcc 12 (Debian 12.2.0-14)
  configuration: --prefix=/usr --extra-version=0+deb12u1 --toolchain=hardened --libdir=/usr/lib/x86_64-linux-gnu --incdir=/usr/include/x86_64-linux-gnu --arch=amd64 --enable-gpl --disable-stripping --enable-gnutls --enable-ladspa --enable-libaom --enable-libass --enable-libbluray --enable-libbs2b --enable-libcaca --enable-libcdio --enable-libcodec2 --enable-libdav1d --enable-libflite --enable-libfontconfig --enable-libfreetype --enable-libfribidi --enable-libglslang --enable-libgme --enable-libgsm --enable-libjack --enable-libmp3lame --enable-libmysofa --enable-libopenjpeg --enable-libopenmpt --enable-libopus --enable-libpulse --enable-librabbitmq --enable-librist --enable-librubberband --enable-libshine --enable-libsnappy --enable-libsoxr --enable-libspeex --enable-libsrt --enable-libssh --enable-libsvtav1 --enable-libtheora --enable-libtwolame --enable-libvidstab --enable-libvorbis --enable-libvpx --enable-libwebp --enable-libx265 --enable-libxml2 --enable-libxvid --enable-libzimg --enable-libzmq --enable-libzvbi --enable-lv2 --enable-omx --enable-openal --enable-opencl --enable-opengl --enable-sdl2 --disable-sndio --enable-libjxl --enable-pocketsphinx --enable-librsvg --enable-libmfx --enable-libdc1394 --enable-libdrm --enable-libiec61883 --enable-chromaprint --enable-frei0r --enable-libx264 --enable-libplacebo --enable-librav1e --enable-shared
  libavutil      57. 28.100 / 57. 28.100
  libavcodec     59. 37.100 / 59. 37.100
  libavformat    59. 27.100 / 59. 27.100
  libavdevice    59.  7.100 / 59.  7.100
  libavfilter     8. 44.100 /  8. 44.100
  libswscale      6.  7.100 /  6.  7.100
  libswresample   4.  7.100 /  4.  7.100
  libpostproc    56.  6.100 / 56.  6.100
Input #0, mov,mp4,m4a,3gp,3g2,mj2, from '/mnt/videos/ferrandis.mp4':
  Metadata:
    major_brand     : isom
    minor_version   : 512
    compatible_brands: isomiso2avc1mp41
    encoder         : Lavf58.76.100
  Duration: 00:01:46.53, start: 0.000000, bitrate: 807 kb/s
  Stream #0:0[0x1](und): Video: h264 (High) (avc1 / 0x31637661), yuv420p(tv, bt709, progressive), 1280x720 [SAR 1:1 DAR 16:9], 670 kb/s, 30 fps, 30 tbr, 15360 tbn (default)
    Metadata:
      handler_name    : VideoHandler
      vendor_id       : [0][0][0][0]
  Stream #0:1[0x2](und): Audio: aac (LC) (mp4a / 0x6134706D), 48000 Hz, stereo, fltp, 128 kb/s (default)
    Metadata:
      handler_name    : SoundHandler
      vendor_id       : [0][0][0][0]
Stream mapping:
  Stream #0:0 (h264) -> scale:default
  scale:default -> Stream #0:0 (libx264)
Press [q] to stop, [?] for help
[libx264 @ 0x608b65206840] using SAR=1/1
[libx264 @ 0x608b65206840] using cpu capabilities: MMX2 SSE2Fast SSSE3 SSE4.2 AVX FMA3 BMI2 AVX2 AVX512
[libx264 @ 0x608b65206840] profile High, level 4.0, 4:2:0, 8-bit
[libx264 @ 0x608b65206840] 264 - core 164 r3095 baee400 - H.264/MPEG-4 AVC codec - Copyleft 2003-2022 - http://www.videolan.org/x264.html - options: cabac=1 ref=3 deblock=1:0:0 analyse=0x3:0x113 me=hex subme=7 psy=1 psy_rd=1.00:0.00 mixed_ref=1 me_range=16 chroma_me=1 trellis=1 8x8dct=1 cqm=0 deadzone=21,11 fast_pskip=1 chroma_qp_offset=-2 threads=24 lookahead_threads=4 sliced_threads=0 nr=0 decimate=1 interlaced=0 bluray_compat=0 constrained_intra=0 bframes=2 b_pyramid=2 b_adapt=1 b_bias=0 direct=1 weightb=1 open_gop=0 weightp=2 keyint=24 keyint_min=2 scenecut=40 intra_refresh=0 rc_lookahead=24 rc=crf mbtree=1 crf=20.0 qcomp=0.60 qpmin=0 qpmax=69 qpstep=4 ip_ratio=1.40 aq=1:1.00
Output #0, mp4, to '/var/www/html/media/ferrandis/v1920x1080_20.mp4':
  Metadata:
    major_brand     : isom
    minor_version   : 512
    compatible_brands: isomiso2avc1mp41
    encoder         : Lavf59.27.100
  Stream #0:0: Video: h264 (avc1 / 0x31637661), yuv420p(tv, bt709, progressive), 1920x1080 [SAR 1:1 DAR 16:9], q=2-31, 30 fps, 15360 tbn
    Metadata:
      encoder         : Lavc59.37.100 libx264
    Side data:
      cpb: bitrate max/min/avg: 0/0/0 buffer size: 0 vbv_delay: N/A
frame=    1 fps=0.0 q=0.0 size=       0kB time=00:00:00.00 bitrate=N/A speed=   0x    frame=  154 fps=0.0 q=26.0 size=     256kB time=00:00:03.33 bitrate= 629.2kbits/s speed=6.26x    frame=  320 fps=309 q=26.0 size=     512kB time=00:00:08.86 bitrate= 473.1kbits/s speed=8.56x    frame=  498 fps=324 q=26.0 size=    1280kB time=00:00:14.80 bitrate= 708.5kbits/s speed=9.63x    frame=  662 fps=325 q=26.0 size=    1792kB time=00:00:20.26 bitrate= 724.4kbits/s speed=9.94x    frame=  821 fps=323 q=26.0 size=    3072kB time=00:00:25.56 bitrate= 984.3kbits/s speed=10.1x    frame= 1023 fps=337 q=26.0 size=    4096kB time=00:00:32.30 bitrate=1038.8kbits/s speed=10.6x    frame= 1148 fps=324 q=26.0 size=    4864kB time=00:00:36.46 bitrate=1092.7kbits/s speed=10.3x    frame= 1235 fps=305 q=26.0 size=    5888kB time=00:00:39.36 bitrate=1225.3kbits/s speed=9.72x    frame= 1327 fps=292 q=26.0 size=    7936kB time=00:00:42.43 bitrate=1532.1kbits/s speed=9.33x    frame= 1489 fps=295 q=26.0 size=    9728kB time=00:00:47.83 bitrate=1666.0kbits/s speed=9.47x    frame= 1621 fps=292 q=26.0 size=   11008kB time=00:00:52.23 bitrate=1726.4kbits/s speed=9.41x    frame= 1774 fps=293 q=26.0 size=   12288kB time=00:00:57.33 bitrate=1755.8kbits/s speed=9.47x    frame= 1938 fps=296 q=26.0 size=   14080kB time=00:01:02.80 bitrate=1836.7kbits/s speed=9.58x    frame= 2133 fps=302 q=23.0 size=   15616kB time=00:01:09.30 bitrate=1846.0kbits/s speed= 9.8x    frame= 2291 fps=303 q=26.0 size=   16640kB time=00:01:14.56 bitrate=1828.1kbits/s speed=9.85x    frame= 2445 fps=303 q=23.0 size=   18432kB time=00:01:19.70 bitrate=1894.5kbits/s speed=9.88x    frame= 2590 fps=302 q=26.0 size=   19968kB time=00:01:24.53 bitrate=1935.1kbits/s speed=9.86x    frame= 2731 fps=301 q=26.0 size=   20992kB time=00:01:29.23 bitrate=1927.2kbits/s speed=9.83x    frame= 2928 fps=306 q=26.0 size=   22016kB time=00:01:35.80 bitrate=1882.6kbits/s speed=  10x    frame= 3069 fps=304 q=23.0 size=   23040kB time=00:01:40.50 bitrate=1878.0kbits/s speed=9.97x    frame= 3196 fps=300 q=-1.0 Lsize=   24412kB time=00:01:46.43 bitrate=1878.9kbits/s speed=  10x    
video:24380kB audio:0kB subtitle:0kB other streams:0kB global headers:0kB muxing overhead: 0.128819%
[libx264 @ 0x608b65206840] frame I:134   Avg QP:11.46  size:125434
[libx264 @ 0x608b65206840] frame P:1260  Avg QP:17.74  size:  6097
[libx264 @ 0x608b65206840] frame B:1802  Avg QP:17.15  size:   263
[libx264 @ 0x608b65206840] consecutive B-frames: 12.2% 12.9% 74.9%
[libx264 @ 0x608b65206840] mb I  I16..4: 48.0% 37.4% 14.5%
[libx264 @ 0x608b65206840] mb P  I16..4:  2.5%  3.8%  0.3%  P16..4:  5.9%  1.0%  0.9%  0.0%  0.0%    skip:85.8%
[libx264 @ 0x608b65206840] mb B  I16..4:  0.1%  0.2%  0.0%  B16..8:  1.1%  0.0%  0.0%  direct: 0.3%  skip:98.3%  L0:31.7% L1:64.8% BI: 3.5%
[libx264 @ 0x608b65206840] 8x8 transform intra:45.3% inter:66.2%
[libx264 @ 0x608b65206840] coded y,uvDC,uvAC intra: 17.1% 20.6% 16.6% inter: 1.7% 1.9% 0.3%
[libx264 @ 0x608b65206840] i16 v,h,dc,p: 65% 32%  3%  1%
[libx264 @ 0x608b65206840] i8 v,h,dc,ddl,ddr,vr,hd,vl,hu: 39% 22% 31%  1%  1%  1%  1%  1%  2%
[libx264 @ 0x608b65206840] i4 v,h,dc,ddl,ddr,vr,hd,vl,hu: 29% 31% 10%  3%  6%  5%  6%  4%  6%
[libx264 @ 0x608b65206840] i8c dc,h,v,p: 73% 20%  5%  1%
[libx264 @ 0x608b65206840] Weighted P-Frames: Y:8.0% UV:2.1%
[libx264 @ 0x608b65206840] ref P L0: 62.2% 21.8% 13.6%  1.9%  0.4%
[libx264 @ 0x608b65206840] ref B L0: 74.9% 22.5%  2.6%
[libx264 @ 0x608b65206840] kb/s:1874.69
ffmpeg version 5.1.6-0+deb12u1 Copyright (c) 2000-2024 the FFmpeg developers
  built with gcc 12 (Debian 12.2.0-14)
  configuration: --prefix=/usr --extra-version=0+deb12u1 --toolchain=hardened --libdir=/usr/lib/x86_64-linux-gnu --incdir=/usr/include/x86_64-linux-gnu --arch=amd64 --enable-gpl --disable-stripping --enable-gnutls --enable-ladspa --enable-libaom --enable-libass --enable-libbluray --enable-libbs2b --enable-libcaca --enable-libcdio --enable-libcodec2 --enable-libdav1d --enable-libflite --enable-libfontconfig --enable-libfreetype --enable-libfribidi --enable-libglslang --enable-libgme --enable-libgsm --enable-libjack --enable-libmp3lame --enable-libmysofa --enable-libopenjpeg --enable-libopenmpt --enable-libopus --enable-libpulse --enable-librabbitmq --enable-librist --enable-librubberband --enable-libshine --enable-libsnappy --enable-libsoxr --enable-libspeex --enable-libsrt --enable-libssh --enable-libsvtav1 --enable-libtheora --enable-libtwolame --enable-libvidstab --enable-libvorbis --enable-libvpx --enable-libwebp --enable-libx265 --enable-libxml2 --enable-libxvid --enable-libzimg --enable-libzmq --enable-libzvbi --enable-lv2 --enable-omx --enable-openal --enable-opencl --enable-opengl --enable-sdl2 --disable-sndio --enable-libjxl --enable-pocketsphinx --enable-librsvg --enable-libmfx --enable-libdc1394 --enable-libdrm --enable-libiec61883 --enable-chromaprint --enable-frei0r --enable-libx264 --enable-libplacebo --enable-librav1e --enable-shared
  libavutil      57. 28.100 / 57. 28.100
  libavcodec     59. 37.100 / 59. 37.100
  libavformat    59. 27.100 / 59. 27.100
  libavdevice    59.  7.100 / 59.  7.100
  libavfilter     8. 44.100 /  8. 44.100
  libswscale      6.  7.100 /  6.  7.100
  libswresample   4.  7.100 /  4.  7.100
  libpostproc    56.  6.100 / 56.  6.100
Input #0, mov,mp4,m4a,3gp,3g2,mj2, from '/mnt/videos/ferrandis.mp4':
  Metadata:
    major_brand     : isom
    minor_version   : 512
    compatible_brands: isomiso2avc1mp41
    encoder         : Lavf58.76.100
  Duration: 00:01:46.53, start: 0.000000, bitrate: 807 kb/s
  Stream #0:0[0x1](und): Video: h264 (High) (avc1 / 0x31637661), yuv420p(tv, bt709, progressive), 1280x720 [SAR 1:1 DAR 16:9], 670 kb/s, 30 fps, 30 tbr, 15360 tbn (default)
    Metadata:
      handler_name    : VideoHandler
      vendor_id       : [0][0][0][0]
  Stream #0:1[0x2](und): Audio: aac (LC) (mp4a / 0x6134706D), 48000 Hz, stereo, fltp, 128 kb/s (default)
    Metadata:
      handler_name    : SoundHandler
      vendor_id       : [0][0][0][0]
Stream mapping:
  Stream #0:0 (h264) -> scale:default
  scale:default -> Stream #0:0 (libx264)
Press [q] to stop, [?] for help
[libx264 @ 0x639b22e36840] using SAR=1/1
[libx264 @ 0x639b22e36840] using cpu capabilities: MMX2 SSE2Fast SSSE3 SSE4.2 AVX FMA3 BMI2 AVX2 AVX512
[libx264 @ 0x639b22e36840] profile High, level 4.0, 4:2:0, 8-bit
[libx264 @ 0x639b22e36840] 264 - core 164 r3095 baee400 - H.264/MPEG-4 AVC codec - Copyleft 2003-2022 - http://www.videolan.org/x264.html - options: cabac=1 ref=3 deblock=1:0:0 analyse=0x3:0x113 me=hex subme=7 psy=1 psy_rd=1.00:0.00 mixed_ref=1 me_range=16 chroma_me=1 trellis=1 8x8dct=1 cqm=0 deadzone=21,11 fast_pskip=1 chroma_qp_offset=-2 threads=24 lookahead_threads=4 sliced_threads=0 nr=0 decimate=1 interlaced=0 bluray_compat=0 constrained_intra=0 bframes=2 b_pyramid=2 b_adapt=1 b_bias=0 direct=1 weightb=1 open_gop=0 weightp=2 keyint=24 keyint_min=2 scenecut=40 intra_refresh=0 rc_lookahead=24 rc=crf mbtree=1 crf=30.0 qcomp=0.60 qpmin=0 qpmax=69 qpstep=4 ip_ratio=1.40 aq=1:1.00
Output #0, mp4, to '/var/www/html/media/ferrandis/v1920x1080_30.mp4':
  Metadata:
    major_brand     : isom
    minor_version   : 512
    compatible_brands: isomiso2avc1mp41
    encoder         : Lavf59.27.100
  Stream #0:0: Video: h264 (avc1 / 0x31637661), yuv420p(tv, bt709, progressive), 1920x1080 [SAR 1:1 DAR 16:9], q=2-31, 30 fps, 15360 tbn
    Metadata:
      encoder         : Lavc59.37.100 libx264
    Side data:
      cpb: bitrate max/min/avg: 0/0/0 buffer size: 0 vbv_delay: N/A
frame=    1 fps=0.0 q=0.0 size=       0kB time=00:00:00.00 bitrate=N/A speed=   0x    frame=  162 fps=0.0 q=36.0 size=       0kB time=00:00:03.60 bitrate=   0.1kbits/s speed=6.78x    frame=  339 fps=328 q=36.0 size=     256kB time=00:00:09.50 bitrate= 220.8kbits/s speed=9.18x    frame=  526 fps=343 q=36.0 size=     512kB time=00:00:15.73 bitrate= 266.6kbits/s speed=10.3x    frame=  677 fps=333 q=36.0 size=     768kB time=00:00:20.76 bitrate= 303.0kbits/s speed=10.2x    frame=  854 fps=337 q=36.0 size=    1280kB time=00:00:26.66 bitrate= 393.2kbits/s speed=10.5x    frame= 1049 fps=345 q=36.0 size=    1792kB time=00:00:33.16 bitrate= 442.6kbits/s speed=10.9x    frame= 1177 fps=332 q=36.0 size=    2048kB time=00:00:37.43 bitrate= 448.2kbits/s speed=10.6x    frame= 1263 fps=312 q=36.0 size=    2816kB time=00:00:40.30 bitrate= 572.4kbits/s speed=9.96x    frame= 1417 fps=312 q=36.0 size=    3584kB time=00:00:45.43 bitrate= 646.2kbits/s speed=9.99x    frame= 1581 fps=313 q=33.0 size=    4096kB time=00:00:50.90 bitrate= 659.2kbits/s speed=10.1x    frame= 1751 fps=315 q=36.0 size=    4608kB time=00:00:56.56 bitrate= 667.3kbits/s speed=10.2x    frame= 1917 fps=317 q=33.0 size=    5376kB time=00:01:02.10 bitrate= 709.2kbits/s speed=10.3x    frame= 2119 fps=323 q=36.0 size=    5888kB time=00:01:08.83 bitrate= 700.7kbits/s speed=10.5x    frame= 2287 fps=324 q=36.0 size=    6656kB time=00:01:14.43 bitrate= 732.6kbits/s speed=10.5x    frame= 2457 fps=325 q=36.0 size=    7424kB time=00:01:20.10 bitrate= 759.3kbits/s speed=10.6x    frame= 2611 fps=324 q=36.0 size=    7936kB time=00:01:25.23 bitrate= 762.8kbits/s speed=10.6x    frame= 2781 fps=325 q=33.0 size=    8448kB time=00:01:30.90 bitrate= 761.3kbits/s speed=10.6x    frame= 2976 fps=328 q=36.0 size=    8960kB time=00:01:37.40 bitrate= 753.6kbits/s speed=10.7x    frame= 3125 fps=326 q=36.0 size=    9472kB time=00:01:42.36 bitrate= 758.0kbits/s speed=10.7x    frame= 3196 fps=322 q=-1.0 Lsize=    9874kB time=00:01:46.43 bitrate= 760.0kbits/s speed=10.7x    
video:9843kB audio:0kB subtitle:0kB other streams:0kB global headers:0kB muxing overhead: 0.316529%
[libx264 @ 0x639b22e36840] frame I:134   Avg QP:22.91  size: 55849
[libx264 @ 0x639b22e36840] frame P:1260  Avg QP:26.30  size:  1848
[libx264 @ 0x639b22e36840] frame B:1802  Avg QP:27.10  size:   148
[libx264 @ 0x639b22e36840] consecutive B-frames: 12.2% 12.9% 74.9%
[libx264 @ 0x639b22e36840] mb I  I16..4: 32.2% 57.5% 10.3%
[libx264 @ 0x639b22e36840] mb P  I16..4:  2.1%  3.0%  0.1%  P16..4:  3.5%  0.3%  0.3%  0.0%  0.0%    skip:90.8%
[libx264 @ 0x639b22e36840] mb B  I16..4:  0.0%  0.0%  0.0%  B16..8:  1.1%  0.0%  0.0%  direct: 0.1%  skip:98.8%  L0:34.3% L1:64.1% BI: 1.6%
[libx264 @ 0x639b22e36840] 8x8 transform intra:57.6% inter:70.1%
[libx264 @ 0x639b22e36840] coded y,uvDC,uvAC intra: 13.8% 16.0% 11.1% inter: 0.7% 0.7% 0.0%
[libx264 @ 0x639b22e36840] i16 v,h,dc,p: 54% 41%  4%  2%
[libx264 @ 0x639b22e36840] i8 v,h,dc,ddl,ddr,vr,hd,vl,hu: 37% 21% 34%  1%  1%  1%  1%  1%  2%
[libx264 @ 0x639b22e36840] i4 v,h,dc,ddl,ddr,vr,hd,vl,hu: 32% 30% 10%  3%  5%  5%  6%  4%  6%
[libx264 @ 0x639b22e36840] i8c dc,h,v,p: 76% 18%  5%  1%
[libx264 @ 0x639b22e36840] Weighted P-Frames: Y:8.0% UV:2.1%
[libx264 @ 0x639b22e36840] ref P L0: 51.3% 30.0% 12.8%  4.1%  1.8%
[libx264 @ 0x639b22e36840] ref B L0: 58.2% 35.7%  6.2%
[libx264 @ 0x639b22e36840] kb/s:756.84
ffmpeg version 5.1.6-0+deb12u1 Copyright (c) 2000-2024 the FFmpeg developers
  built with gcc 12 (Debian 12.2.0-14)
  configuration: --prefix=/usr --extra-version=0+deb12u1 --toolchain=hardened --libdir=/usr/lib/x86_64-linux-gnu --incdir=/usr/include/x86_64-linux-gnu --arch=amd64 --enable-gpl --disable-stripping --enable-gnutls --enable-ladspa --enable-libaom --enable-libass --enable-libbluray --enable-libbs2b --enable-libcaca --enable-libcdio --enable-libcodec2 --enable-libdav1d --enable-libflite --enable-libfontconfig --enable-libfreetype --enable-libfribidi --enable-libglslang --enable-libgme --enable-libgsm --enable-libjack --enable-libmp3lame --enable-libmysofa --enable-libopenjpeg --enable-libopenmpt --enable-libopus --enable-libpulse --enable-librabbitmq --enable-librist --enable-librubberband --enable-libshine --enable-libsnappy --enable-libsoxr --enable-libspeex --enable-libsrt --enable-libssh --enable-libsvtav1 --enable-libtheora --enable-libtwolame --enable-libvidstab --enable-libvorbis --enable-libvpx --enable-libwebp --enable-libx265 --enable-libxml2 --enable-libxvid --enable-libzimg --enable-libzmq --enable-libzvbi --enable-lv2 --enable-omx --enable-openal --enable-opencl --enable-opengl --enable-sdl2 --disable-sndio --enable-libjxl --enable-pocketsphinx --enable-librsvg --enable-libmfx --enable-libdc1394 --enable-libdrm --enable-libiec61883 --enable-chromaprint --enable-frei0r --enable-libx264 --enable-libplacebo --enable-librav1e --enable-shared
  libavutil      57. 28.100 / 57. 28.100
  libavcodec     59. 37.100 / 59. 37.100
  libavformat    59. 27.100 / 59. 27.100
  libavdevice    59.  7.100 / 59.  7.100
  libavfilter     8. 44.100 /  8. 44.100
  libswscale      6.  7.100 /  6.  7.100
  libswresample   4.  7.100 /  4.  7.100
  libpostproc    56.  6.100 / 56.  6.100
Input #0, mov,mp4,m4a,3gp,3g2,mj2, from '/mnt/videos/ferrandis.mp4':
  Metadata:
    major_brand     : isom
    minor_version   : 512
    compatible_brands: isomiso2avc1mp41
    encoder         : Lavf58.76.100
  Duration: 00:01:46.53, start: 0.000000, bitrate: 807 kb/s
  Stream #0:0[0x1](und): Video: h264 (High) (avc1 / 0x31637661), yuv420p(tv, bt709, progressive), 1280x720 [SAR 1:1 DAR 16:9], 670 kb/s, 30 fps, 30 tbr, 15360 tbn (default)
    Metadata:
      handler_name    : VideoHandler
      vendor_id       : [0][0][0][0]
  Stream #0:1[0x2](und): Audio: aac (LC) (mp4a / 0x6134706D), 48000 Hz, stereo, fltp, 128 kb/s (default)
    Metadata:
      handler_name    : SoundHandler
      vendor_id       : [0][0][0][0]
Stream mapping:
  Stream #0:0 (h264) -> scale:default
  scale:default -> Stream #0:0 (libx264)
Press [q] to stop, [?] for help
[libx264 @ 0x59abee6c2840] using SAR=1/1
[libx264 @ 0x59abee6c2840] using cpu capabilities: MMX2 SSE2Fast SSSE3 SSE4.2 AVX FMA3 BMI2 AVX2 AVX512
[libx264 @ 0x59abee6c2840] profile High, level 4.0, 4:2:0, 8-bit
[libx264 @ 0x59abee6c2840] 264 - core 164 r3095 baee400 - H.264/MPEG-4 AVC codec - Copyleft 2003-2022 - http://www.videolan.org/x264.html - options: cabac=1 ref=3 deblock=1:0:0 analyse=0x3:0x113 me=hex subme=7 psy=1 psy_rd=1.00:0.00 mixed_ref=1 me_range=16 chroma_me=1 trellis=1 8x8dct=1 cqm=0 deadzone=21,11 fast_pskip=1 chroma_qp_offset=-2 threads=24 lookahead_threads=4 sliced_threads=0 nr=0 decimate=1 interlaced=0 bluray_compat=0 constrained_intra=0 bframes=2 b_pyramid=2 b_adapt=1 b_bias=0 direct=1 weightb=1 open_gop=0 weightp=2 keyint=24 keyint_min=2 scenecut=40 intra_refresh=0 rc_lookahead=24 rc=crf mbtree=1 crf=40.0 qcomp=0.60 qpmin=0 qpmax=69 qpstep=4 ip_ratio=1.40 aq=1:1.00
Output #0, mp4, to '/var/www/html/media/ferrandis/v1920x1080_40.mp4':
  Metadata:
    major_brand     : isom
    minor_version   : 512
    compatible_brands: isomiso2avc1mp41
    encoder         : Lavf59.27.100
  Stream #0:0: Video: h264 (avc1 / 0x31637661), yuv420p(tv, bt709, progressive), 1920x1080 [SAR 1:1 DAR 16:9], q=2-31, 30 fps, 15360 tbn
    Metadata:
      encoder         : Lavc59.37.100 libx264
    Side data:
      cpb: bitrate max/min/avg: 0/0/0 buffer size: 0 vbv_delay: N/A
frame=    1 fps=0.0 q=0.0 size=       0kB time=00:00:00.00 bitrate=N/A speed=   0x    frame=  163 fps=0.0 q=46.0 size=       0kB time=00:00:03.63 bitrate=   0.1kbits/s speed=6.81x    frame=  345 fps=333 q=46.0 size=       0kB time=00:00:09.70 bitrate=   0.0kbits/s speed=9.37x    frame=  543 fps=354 q=46.0 size=     256kB time=00:00:16.30 bitrate= 128.7kbits/s speed=10.6x    frame=  695 fps=341 q=46.0 size=     256kB time=00:00:21.36 bitrate=  98.2kbits/s speed=10.5x    frame=  884 fps=348 q=46.0 size=     512kB time=00:00:27.66 bitrate= 151.6kbits/s speed=10.9x    frame= 1076 fps=353 q=46.0 size=     768kB time=00:00:34.06 bitrate= 184.7kbits/s speed=11.2x    frame= 1204 fps=339 q=46.0 size=    1024kB time=00:00:38.33 bitrate= 218.8kbits/s speed=10.8x    frame= 1327 fps=328 q=46.0 size=    1280kB time=00:00:42.43 bitrate= 247.1kbits/s speed=10.5x    frame= 1507 fps=331 q=46.0 size=    1536kB time=00:00:48.43 bitrate= 259.8kbits/s speed=10.6x    frame= 1676 fps=332 q=46.0 size=    1792kB time=00:00:54.06 bitrate= 271.5kbits/s speed=10.7x    frame= 1848 fps=333 q=46.0 size=    2048kB time=00:00:59.80 bitrate= 280.6kbits/s speed=10.8x    frame= 2051 fps=339 q=46.0 size=    2304kB time=00:01:06.56 bitrate= 283.5kbits/s speed=  11x    frame= 2249 fps=343 q=46.0 size=    2560kB time=00:01:13.16 bitrate= 286.6kbits/s speed=11.2x    frame= 2417 fps=343 q=46.0 size=    2816kB time=00:01:18.76 bitrate= 292.9kbits/s speed=11.2x    frame= 2588 fps=342 q=46.0 size=    3072kB time=00:01:24.46 bitrate= 297.9kbits/s speed=11.2x    frame= 2753 fps=341 q=46.0 size=    3328kB time=00:01:29.96 bitrate= 303.0kbits/s speed=11.2x    frame= 2960 fps=346 q=46.0 size=    3584kB time=00:01:36.86 bitrate= 303.1kbits/s speed=11.3x    frame= 3117 fps=344 q=43.0 size=    3840kB time=00:01:42.10 bitrate= 308.1kbits/s speed=11.3x    frame= 3196 fps=340 q=-1.0 Lsize=    4112kB time=00:01:46.43 bitrate= 316.5kbits/s speed=11.3x    
video:4081kB audio:0kB subtitle:0kB other streams:0kB global headers:0kB muxing overhead: 0.761614%
[libx264 @ 0x59abee6c2840] frame I:134   Avg QP:32.79  size: 22935
[libx264 @ 0x59abee6c2840] frame P:1260  Avg QP:34.31  size:   704
[libx264 @ 0x59abee6c2840] frame B:1802  Avg QP:34.58  size:   120
[libx264 @ 0x59abee6c2840] consecutive B-frames: 12.2% 12.9% 74.9%
[libx264 @ 0x59abee6c2840] mb I  I16..4: 34.1% 59.3%  6.6%
[libx264 @ 0x59abee6c2840] mb P  I16..4:  2.0%  1.6%  0.0%  P16..4:  1.7%  0.0%  0.1%  0.0%  0.0%    skip:94.6%
[libx264 @ 0x59abee6c2840] mb B  I16..4:  0.0%  0.0%  0.0%  B16..8:  0.9%  0.0%  0.0%  direct: 0.0%  skip:99.1%  L0:34.3% L1:64.8% BI: 0.9%
[libx264 @ 0x59abee6c2840] 8x8 transform intra:55.5% inter:84.4%
[libx264 @ 0x59abee6c2840] coded y,uvDC,uvAC intra: 11.4% 12.1% 5.0% inter: 0.2% 0.2% 0.0%
[libx264 @ 0x59abee6c2840] i16 v,h,dc,p: 55% 40%  4%  2%
[libx264 @ 0x59abee6c2840] i8 v,h,dc,ddl,ddr,vr,hd,vl,hu: 39% 22% 31%  1%  1%  1%  1%  1%  2%
[libx264 @ 0x59abee6c2840] i4 v,h,dc,ddl,ddr,vr,hd,vl,hu: 32% 29% 11%  3%  5%  5%  5%  4%  5%
[libx264 @ 0x59abee6c2840] i8c dc,h,v,p: 79% 15%  4%  1%
[libx264 @ 0x59abee6c2840] Weighted P-Frames: Y:8.0% UV:2.1%
[libx264 @ 0x59abee6c2840] ref P L0: 62.4% 16.9% 11.3%  4.9%  4.6%
[libx264 @ 0x59abee6c2840] ref B L0: 53.7% 37.1%  9.3%
[libx264 @ 0x59abee6c2840] kb/s:313.73
Traceback (most recent call last):
  File "/opt/backend/procesado.py", line 126, in <module>
    main()
  File "/opt/backend/procesado.py", line 123, in main
    empaquetar_digital(out_dir)
TypeError: empaquetar_digital() missing 1 required positional argument: 'out_dir'
